<svg width="512" height="512" version="1.1" xmlns="http://www.w3.org/2000/svg" desc="Created with imagetracer.js version 1.2.6" ><path fill="rgb(0,0,0)" stroke="rgb(0,0,0)" stroke-width="1" opacity="1" d="M 245.5 53 L 248 54.5 L 248 56.5 L 247.5 58 L 247 56 L 245 55.5 L 247 54.5 L 245.5 53 Z " /><path fill="rgb(0,0,0)" stroke="rgb(0,0,0)" stroke-width="1" opacity="1" d="M 256.5 54 L 259 55.5 L 257 56 L 256.5 58 L 256 56.5 L 256.5 54 Z " /><path fill="rgb(0,0,0)" stroke="rgb(0,0,0)" stroke-width="1" opacity="1" d="M 231.5 62 L 230.5 64 L 231.5 62 Z " /><path fill="rgb(0,0,0)" stroke="rgb(0,0,0)" stroke-width="1" opacity="1" d="M 277.5 65 L 276.5 67 L 275 66.5 L 277.5 65 Z " /><path fill="rgb(0,0,0)" stroke="rgb(0,0,0)" stroke-width="1" opacity="1" d="M 215.5 73 L 216.5 75 L 215.5 73 Z " /><path fill="rgb(0,0,0)" stroke="rgb(0,0,0)" stroke-width="1" opacity="1" d="M 288.5 73 L 287.5 75 L 288.5 73 Z " /><path fill="rgb(0,0,0)" stroke="rgb(0,0,0)" stroke-width="1" opacity="1" d="M 293.5 73 L 292.5 75 L 293.5 73 Z " /><path fill="rgb(0,0,0)" stroke="rgb(0,0,0)" stroke-width="1" opacity="1" d="M 299.5 77 L 298.5 79 L 297 78.5 L 299.5 77 Z " /><path fill="rgb(0,0,0)" stroke="rgb(0,0,0)" stroke-width="1" opacity="1" d="M 301.5 79 L 303 79.5 L 298.5 82 L 299.5 80 L 301.5 79 Z " /><path fill="rgb(0,0,0)" stroke="rgb(0,0,0)" stroke-width="1" opacity="1" d="M 199.5 80 L 203 82.5 L 201.5 82 L 197.5 84 L 198.5 82 L 200 81.5 L 199.5 80 Z " /><path fill="rgb(0,0,0)" stroke="rgb(0,0,0)" stroke-width="1" opacity="1" d="M 191.5 85 L 192 87.5 L 191.5 89 L 190 86.5 L 191.5 85 Z " /><path fill="rgb(0,0,0)" stroke="rgb(0,0,0)" stroke-width="1" opacity="1" d="M 311.5 86 L 314 86.5 L 311.5 87 L 311.5 86 Z " /><path fill="rgb(0,0,0)" stroke="rgb(0,0,0)" stroke-width="1" opacity="1" d="M 191.5 90 L 190.5 92 L 189 91.5 L 191.5 90 Z " /><path fill="rgb(0,0,0)" stroke="rgb(0,0,0)" stroke-width="1" opacity="1" d="M 292.5 92 L 291.5 94 L 292.5 92 Z " /><path fill="rgb(0,0,0)" stroke="rgb(0,0,0)" stroke-width="1" opacity="1" d="M 178.5 93 L 177.5 95 L 178.5 93 Z " /><path fill="rgb(0,0,0)" stroke="rgb(0,0,0)" stroke-width="1" opacity="1" d="M 295.5 93 L 296.5 95 L 295.5 93 Z " /><path fill="rgb(0,0,0)" stroke="rgb(0,0,0)" stroke-width="1" opacity="1" d="M 300.5 93 L 301.5 95 L 300.5 93 Z " /><path fill="rgb(0,0,0)" stroke="rgb(0,0,0)" stroke-width="1" opacity="1" d="M 175.5 95 L 174.5 97 L 173 96.5 L 175.5 95 Z " /><path fill="rgb(0,0,0)" stroke="rgb(0,0,0)" stroke-width="1" opacity="1" d="M 293.5 95 L 295 95.5 L 291.5 97 L 291.5 96 L 293.5 95 Z " /><path fill="rgb(0,0,0)" stroke="rgb(0,0,0)" stroke-width="1" opacity="1" d="M 171.5 97 L 174 98.5 L 172.5 99 L 171.5 97 Z " /><path fill="rgb(0,0,0)" stroke="rgb(0,0,0)" stroke-width="1" opacity="1" d="M 288.5 101 L 287.5 103 L 285.5 104 L 286.5 102 L 288.5 101 Z " /><path fill="rgb(0,0,0)" stroke="rgb(0,0,0)" stroke-width="1" opacity="1" d="M 340.5 101 L 341.5 103 L 340.5 101 Z " /><path fill="rgb(0,0,0)" stroke="rgb(0,0,0)" stroke-width="1" opacity="1" d="M 282.5 103 L 279.5 107 L 282.5 103 Z " /><path fill="rgb(0,0,0)" stroke="rgb(0,0,0)" stroke-width="1" opacity="1" d="M 313.5 105 L 312.5 107 L 310.5 108 L 311.5 106 L 313.5 105 Z " /><path fill="rgb(0,0,0)" stroke="rgb(0,0,0)" stroke-width="1" opacity="1" d="M 273.5 108 L 276 109.5 L 274.5 109 L 273.5 108 Z " /><path fill="rgb(0,0,0)" stroke="rgb(0,0,0)" stroke-width="1" opacity="1" d="M 353.5 108 L 353 109.5 L 353.5 111 L 355 110.5 Q 353.5 113.5 352 110.5 L 353.5 108 Z " /><path fill="rgb(0,0,0)" stroke="rgb(0,0,0)" stroke-width="1" opacity="1" d="M 306.5 109 L 305.5 111 L 306.5 109 Z " /><path fill="rgb(0,0,0)" stroke="rgb(0,0,0)" stroke-width="1" opacity="1" d="M 148.5 112 L 151 113.5 L 147.5 115 L 145.5 114 L 141 115.5 L 143.5 113 L 145.5 113 L 148.5 114 L 148.5 112 Z " /><path fill="rgb(0,0,0)" stroke="rgb(0,0,0)" stroke-width="1" opacity="1" d="M 355.5 112 L 357 112.5 L 356.5 114 L 359.5 112 L 359.5 114 L 363 115.5 L 361.5 115 L 358.5 114 L 356.5 115 L 354.5 114 L 353 114.5 L 355.5 112 Z " /><path fill="rgb(0,0,0)" stroke="rgb(0,0,0)" stroke-width="1" opacity="1" d="M 255.5 116 Q 258.5 117.5 255.5 119 L 255.5 116 Z " /><path fill="rgb(0,0,0)" stroke="rgb(0,0,0)" stroke-width="1" opacity="1" d="M 295.5 116 L 295 117.5 L 294.5 119 L 294 117.5 L 295.5 116 Z " /><path fill="rgb(0,0,0)" stroke="rgb(0,0,0)" stroke-width="1" opacity="1" d="M 133.5 119 L 136 120.5 L 134.5 120 L 133.5 119 Z " /><path fill="rgb(0,0,0)" stroke="rgb(0,0,0)" stroke-width="1" opacity="1" d="M 288.5 119 L 286.5 122 L 288.5 119 Z " /><path fill="rgb(0,0,0)" stroke="rgb(0,0,0)" stroke-width="1" opacity="1" d="M 248.5 120 L 249.5 122 L 248.5 120 Z " /><path fill="rgb(0,0,0)" stroke="rgb(0,0,0)" stroke-width="1" opacity="1" d="M 376.5 122 L 378 124.5 L 377 124.5 L 376.5 122 Z " /><path fill="rgb(0,0,0)" stroke="rgb(0,0,0)" stroke-width="1" opacity="1" d="M 242.5 124 L 245 125.5 L 244.5 128 L 242.5 129 L 242.5 126 L 244 125.5 L 242.5 124 Z " /><path fill="rgb(0,0,0)" stroke="rgb(0,0,0)" stroke-width="1" opacity="1" d="M 246.5 124 L 247.5 126 L 246.5 124 Z " /><path fill="rgb(0,0,0)" stroke="rgb(0,0,0)" stroke-width="1" opacity="1" d="M 382.5 126 L 385 126.5 L 382.5 127 L 382.5 126 Z " /><path fill="rgb(0,0,0)" stroke="rgb(0,0,0)" stroke-width="1" opacity="1" d="M 237.5 127 L 240 127.5 L 237.5 128 L 237.5 127 Z " /><path fill="rgb(0,0,0)" stroke="rgb(0,0,0)" stroke-width="1" opacity="1" d="M 379.5 127 L 382 128.5 L 380.5 128 L 379.5 127 Z " /><path fill="rgb(0,0,0)" stroke="rgb(0,0,0)" stroke-width="1" opacity="1" d="M 272.5 128 L 272.5 130 L 276 131.5 L 274.5 132 L 271.5 130 L 270 130.5 L 272.5 128 Z " /><path fill="rgb(0,0,0)" stroke="rgb(0,0,0)" stroke-width="1" opacity="1" d="M 239.5 129 L 241 129.5 L 237.5 131 L 237.5 130 L 239.5 129 Z " /><path fill="rgb(0,0,0)" stroke="rgb(0,0,0)" stroke-width="1" opacity="1" d="M 108.5 132 L 106.5 135 L 108.5 132 Z " /><path fill="rgb(0,0,0)" stroke="rgb(0,0,0)" stroke-width="1" opacity="1" d="M 226.5 132 L 229 132.5 L 226.5 133 L 226.5 132 Z " /><path fill="rgb(0,0,0)" stroke="rgb(0,0,0)" stroke-width="1" opacity="1" d="M 111.5 133 L 110.5 135 L 109 134.5 L 111.5 133 Z " /><path fill="rgb(0,0,0)" stroke="rgb(0,0,0)" stroke-width="1" opacity="1" d="M 225.5 134 L 226.5 136 Q 223.7 136.7 225.5 134 Z " /><path fill="rgb(0,0,0)" stroke="rgb(0,0,0)" stroke-width="1" opacity="1" d="M 104.5 135 L 103.5 137 L 104.5 135 Z " /><path fill="rgb(0,0,0)" stroke="rgb(0,0,0)" stroke-width="1" opacity="1" d="M 98.5 138 L 99.5 140 L 98.5 138 Z " /><path fill="rgb(0,0,0)" stroke="rgb(0,0,0)" stroke-width="1" opacity="1" d="M 215.5 141 L 217.5 141 L 219 141.5 L 215.5 144 L 215.5 141 Z " /><path fill="rgb(0,0,0)" stroke="rgb(0,0,0)" stroke-width="1" opacity="1" d="M 89.5 144 L 92 145.5 L 90.5 145 L 89.5 144 Z " /><path fill="rgb(0,0,0)" stroke="rgb(0,0,0)" stroke-width="1" opacity="1" d="M 208.5 144 L 211 145.5 L 209.5 146 L 208.5 144 Z " /><path fill="rgb(0,0,0)" stroke="rgb(0,0,0)" stroke-width="1" opacity="1" d="M 295.5 144 L 294.5 146 L 295.5 144 Z " /><path fill="rgb(0,0,0)" stroke="rgb(0,0,0)" stroke-width="1" opacity="1" d="M 413.5 144 L 415 144.5 L 412.5 146 L 413.5 144 Z " /><path fill="rgb(0,0,0)" stroke="rgb(0,0,0)" stroke-width="1" opacity="1" d="M 87.5 145 L 86.5 147 L 87.5 145 Z " /><path fill="rgb(0,0,0)" stroke="rgb(0,0,0)" stroke-width="1" opacity="1" d="M 201.5 148 L 202 150.5 L 198.5 154 L 197 153.5 L 201 150.5 Q 198.8 149.3 201.5 148 Z " /><path fill="rgb(0,0,0)" stroke="rgb(0,0,0)" stroke-width="1" opacity="1" d="M 301.5 148 L 304 149.5 Q 301.3 151.2 305.5 153 Q 307.8 152.3 307 154.5 L 302 150.5 L 302.5 149 L 301.5 148 Z " /><path fill="rgb(0,0,0)" stroke="rgb(0,0,0)" stroke-width="1" opacity="1" d="M 79.5 149 L 78.5 151 L 77 150.5 L 79.5 149 Z " /><path fill="rgb(0,0,0)" stroke="rgb(0,0,0)" stroke-width="1" opacity="1" d="M 298.5 149 L 299.5 151 L 298.5 149 Z " /><path fill="rgb(0,0,0)" stroke="rgb(0,0,0)" stroke-width="1" opacity="1" d="M 425.5 152 L 428 153.5 L 426.5 154 L 425.5 152 Z " /><path fill="rgb(0,0,0)" stroke="rgb(0,0,0)" stroke-width="1" opacity="1" d="M 315.5 157 L 318 157.5 L 315.5 158 L 315.5 157 Z " /><path fill="rgb(0,0,0)" stroke="rgb(0,0,0)" stroke-width="1" opacity="1" d="M 185.5 159 L 186.5 161 L 185.5 159 Z " /><path fill="rgb(0,0,0)" stroke="rgb(0,0,0)" stroke-width="1" opacity="1" d="M 318.5 159 L 318.5 162 Q 315.5 160.5 318.5 159 Z " /><path fill="rgb(0,0,0)" stroke="rgb(0,0,0)" stroke-width="1" opacity="1" d="M 182.5 161 L 181.5 163 L 182.5 161 Z " /><path fill="rgb(0,0,0)" stroke="rgb(0,0,0)" stroke-width="1" opacity="1" d="M 177.5 163 L 179 165.5 L 177 164.5 L 177.5 163 Z " /><path fill="rgb(0,0,0)" stroke="rgb(0,0,0)" stroke-width="1" opacity="1" d="M 326.5 164 L 328 164.5 L 325.5 166 L 326.5 164 Z " /><path fill="rgb(0,0,0)" stroke="rgb(0,0,0)" stroke-width="1" opacity="1" d="M 404.5 164 L 407 165.5 L 405.5 165 L 404 165.5 L 405.5 168 L 402 165.5 L 404.5 164 Z " /><path fill="rgb(0,0,0)" stroke="rgb(0,0,0)" stroke-width="1" opacity="1" d="M 168.5 167 L 171 168.5 L 169 169.5 L 169.5 171 L 168 169.5 L 168.5 167 Z " /><path fill="rgb(0,0,0)" stroke="rgb(0,0,0)" stroke-width="1" opacity="1" d="M 335.5 167 L 336 169.5 L 334.5 171 L 334.5 169 L 332.5 170 L 333.5 168 L 335.5 167 Z " /><path fill="rgb(0,0,0)" stroke="rgb(0,0,0)" stroke-width="1" opacity="1" d="M 165.5 172 L 164.5 174 L 163 173.5 L 165.5 172 Z " /><path fill="rgb(0,0,0)" stroke="rgb(0,0,0)" stroke-width="1" opacity="1" d="M 389.5 172 L 389 173.5 Q 389.8 175.8 387.5 175 L 385.5 176 L 385.5 175 L 389.5 172 Z " /><path fill="rgb(0,0,0)" stroke="rgb(0,0,0)" stroke-width="1" opacity="1" d="M 392.5 172 L 392.5 175 Q 389.5 173.5 392.5 172 Z " /><path fill="rgb(0,0,0)" stroke="rgb(0,0,0)" stroke-width="1" opacity="1" d="M 344.5 174 L 346 174.5 L 343.5 176 L 344.5 174 Z " /><path fill="rgb(0,0,0)" stroke="rgb(0,0,0)" stroke-width="1" opacity="1" d="M 390.5 175 L 389.5 177 L 390.5 175 Z " /><path fill="rgb(0,0,0)" stroke="rgb(0,0,0)" stroke-width="1" opacity="1" d="M 347.5 177 L 352 180.5 L 349.5 179 L 347.5 177 Z " /><path fill="rgb(0,0,0)" stroke="rgb(0,0,0)" stroke-width="1" opacity="1" d="M 149.5 181 L 147.5 184 L 145.5 185 L 146.5 183 L 149.5 181 Z " /><path fill="rgb(0,0,0)" stroke="rgb(0,0,0)" stroke-width="1" opacity="1" d="M 360.5 181 L 359.5 183 L 360.5 181 Z " /><path fill="rgb(0,0,0)" stroke="rgb(0,0,0)" stroke-width="1" opacity="1" d="M 380.5 181 L 382 181.5 L 378.5 183 L 378.5 182 L 380.5 181 Z " /><path fill="rgb(0,0,0)" stroke="rgb(0,0,0)" stroke-width="1" opacity="1" d="M 144.5 182 L 143.5 184 L 144.5 182 Z " /><path fill="rgb(0,0,0)" stroke="rgb(0,0,0)" stroke-width="1" opacity="1" d="M 355.5 182 L 359 184.5 L 357.5 184 L 355.5 182 Z " /><path fill="rgb(0,0,0)" stroke="rgb(0,0,0)" stroke-width="1" opacity="1" d="M 370.5 182 L 373 183.5 L 371.5 184 L 370.5 182 Z " /><path fill="rgb(0,0,0)" stroke="rgb(0,0,0)" stroke-width="1" opacity="1" d="M 368.5 183 L 369 185 L 372.5 186 L 374 185.5 L 371.5 187 L 369.5 186 L 368 186.5 L 368 184.5 L 368.5 183 Z " /><path fill="rgb(0,0,0)" stroke="rgb(0,0,0)" stroke-width="1" opacity="1" d="M 131.5 189 L 133.5 192 L 131.5 189 Z " /><path fill="rgb(0,0,0)" stroke="rgb(0,0,0)" stroke-width="1" opacity="1" d="M 128.5 191 L 128.5 194 Q 125.5 192.5 128.5 191 Z " /><path fill="rgb(0,0,0)" stroke="rgb(0,0,0)" stroke-width="1" opacity="1" d="M 125.5 194 L 124.5 196 L 125.5 194 Z " /><path fill="rgb(0,0,0)" stroke="rgb(0,0,0)" stroke-width="1" opacity="1" d="M 115.5 195 L 116.5 197 L 115.5 195 Z " /><path fill="rgb(0,0,0)" stroke="rgb(0,0,0)" stroke-width="1" opacity="1" d="M 120.5 195 L 118.5 198 L 120.5 195 Z " /><path fill="rgb(0,0,0)" stroke="rgb(0,0,0)" stroke-width="1" opacity="1" d="M 112.5 199 L 114 201.5 L 112 202.5 L 112 200.5 L 112.5 199 Z " /><path fill="rgb(0,0,0)" stroke="rgb(0,0,0)" stroke-width="1" opacity="1" d="M 118.5 199 L 120 199.5 L 116.5 202 L 115.5 200 Q 117 202.5 118.5 199 Z " /><path fill="rgb(0,0,0)" stroke="rgb(0,0,0)" stroke-width="1" opacity="1" d="M 108.5 205 L 110 205.5 L 107.5 207 L 108.5 205 Z " /><path fill="rgb(0,0,0)" stroke="rgb(0,0,0)" stroke-width="1" opacity="1" d="M 98.5 206 L 101 207.5 L 99.5 208 L 98.5 206 Z " /><path fill="rgb(0,0,0)" stroke="rgb(0,0,0)" stroke-width="1" opacity="1" d="M 88.5 212 L 89 214.5 L 87.5 216 L 86 215.5 L 88 214.5 L 86 213.5 L 88.5 212 Z " /><path fill="rgb(0,0,0)" stroke="rgb(0,0,0)" stroke-width="1" opacity="1" d="M 121.5 217 L 121.5 220 Q 118.5 218.5 121.5 217 Z " /><path fill="rgb(0,0,0)" stroke="rgb(0,0,0)" stroke-width="1" opacity="1" d="M 124.5 217 L 126 217.5 L 125.5 220 L 123 218.5 L 124.5 217 Z " /><path fill="rgb(0,0,0)" stroke="rgb(0,0,0)" stroke-width="1" opacity="1" d="M 74.5 221 L 75.5 223 L 74.5 221 Z " /><path fill="rgb(0,0,0)" stroke="rgb(0,0,0)" stroke-width="1" opacity="1" d="M 77.5 223 L 76.5 225 L 77.5 223 Z " /><path fill="rgb(0,0,0)" stroke="rgb(0,0,0)" stroke-width="1" opacity="1" d="M 110.5 223 L 111.5 225 L 110.5 223 Z " /><path fill="rgb(0,0,0)" stroke="rgb(0,0,0)" stroke-width="1" opacity="1" d="M 98.5 228 L 98 229.5 Q 98.8 231.8 96.5 231 L 98.5 228 Z " /><path fill="rgb(0,0,0)" stroke="rgb(0,0,0)" stroke-width="1" opacity="1" d="M 100.5 229 L 101 230.5 L 98 232.5 L 100.5 229 Z " /><path fill="rgb(0,0,0)" stroke="rgb(0,0,0)" stroke-width="1" opacity="1" d="M 102.5 232 L 104 232.5 L 102 233 L 101.5 235 L 101 233.5 L 102.5 232 Z " /><path fill="rgb(0,0,0)" stroke="rgb(0,0,0)" stroke-width="1" opacity="1" d="M 87.5 237 L 86.5 239 L 84.5 240 L 85.5 238 L 87.5 237 Z " /><path fill="rgb(0,0,0)" stroke="rgb(0,0,0)" stroke-width="1" opacity="1" d="M 80.5 239 L 80.5 242 Q 77.5 240.5 80.5 239 Z " /><path fill="rgb(0,0,0)" stroke="rgb(0,0,0)" stroke-width="1" opacity="1" d="M 74.5 242 L 75.5 244 L 74.5 242 Z " /><path fill="rgb(0,0,0)" stroke="rgb(0,0,0)" stroke-width="1" opacity="1" d="M 419.5 296 L 422 297.5 L 419.5 299 L 419.5 296 Z " /><path fill="rgb(0,0,0)" stroke="rgb(0,0,0)" stroke-width="1" opacity="1" d="M 406.5 303 L 407.5 305 L 406.5 303 Z " /><path fill="rgb(0,0,0)" stroke="rgb(0,0,0)" stroke-width="1" opacity="1" d="M 398.5 307 L 399 308.5 L 396 310.5 L 398.5 307 Z " /><path fill="rgb(0,0,0)" stroke="rgb(0,0,0)" stroke-width="1" opacity="1" d="M 377.5 318 L 379 318.5 L 375 321.5 L 376.5 324 L 373.5 322 L 371 323.5 L 377.5 318 Z " /><path fill="rgb(0,0,0)" stroke="rgb(0,0,0)" stroke-width="1" opacity="1" d="M 381.5 318 L 380.5 320 L 381.5 318 Z " /><path fill="rgb(0,0,0)" stroke="rgb(0,0,0)" stroke-width="1" opacity="1" d="M 137.5 326 L 136.5 328 L 137.5 326 Z " /><path fill="rgb(0,0,0)" stroke="rgb(0,0,0)" stroke-width="1" opacity="1" d="M 365.5 326 L 368 327.5 L 366.5 327 L 365.5 326 Z " /><path fill="rgb(0,0,0)" stroke="rgb(0,0,0)" stroke-width="1" opacity="1" d="M 143.5 328 L 145.5 331 L 143 330.5 L 143.5 328 Z " /><path fill="rgb(0,0,0)" stroke="rgb(0,0,0)" stroke-width="1" opacity="1" d="M 360.5 328 L 360.5 331 L 358.5 331 L 357 330.5 L 360.5 328 Z " /><path fill="rgb(0,0,0)" stroke="rgb(0,0,0)" stroke-width="1" opacity="1" d="M 162.5 341 L 168 344.5 L 165.5 345 L 163 344 L 162.5 341 Z " /><path fill="rgb(0,0,0)" stroke="rgb(0,0,0)" stroke-width="1" opacity="1" d="M 165.5 341 L 168 342.5 L 166.5 342 L 165.5 341 Z " /><path fill="rgb(0,0,0)" stroke="rgb(0,0,0)" stroke-width="1" opacity="1" d="M 337.5 341 L 339 341.5 L 336.5 343 L 337.5 341 Z " /><path fill="rgb(0,0,0)" stroke="rgb(0,0,0)" stroke-width="1" opacity="1" d="M 336.5 344 L 339 344.5 L 336.5 345 L 336.5 344 Z " /><path fill="rgb(0,0,0)" stroke="rgb(0,0,0)" stroke-width="1" opacity="1" d="M 170.5 345 L 173 346.5 L 171.5 346 L 170.5 345 Z " /><path fill="rgb(0,0,0)" stroke="rgb(0,0,0)" stroke-width="1" opacity="1" d="M 332.5 345 L 334 345.5 L 331.5 347 L 332.5 345 Z " /><path fill="rgb(0,0,0)" stroke="rgb(0,0,0)" stroke-width="1" opacity="1" d="M 328.5 346 L 329.5 348 L 328.5 346 Z " /><path fill="rgb(0,0,0)" stroke="rgb(0,0,0)" stroke-width="1" opacity="1" d="M 183.5 351 L 185 352.5 L 184.5 355 L 183 353.5 L 183.5 351 Z " /><path fill="rgb(0,0,0)" stroke="rgb(0,0,0)" stroke-width="1" opacity="1" d="M 320.5 353 L 319.5 355 L 320.5 353 Z " /><path fill="rgb(0,0,0)" stroke="rgb(0,0,0)" stroke-width="1" opacity="1" d="M 72.5 357 L 74.5 357 L 76 357.5 L 73 359.5 L 72.5 361 L 72 359.5 L 72.5 357 Z " /><path fill="rgb(0,0,0)" stroke="rgb(0,0,0)" stroke-width="1" opacity="1" d="M 425.5 357 L 426.5 359 L 425.5 357 Z " /><path fill="rgb(0,0,0)" stroke="rgb(0,0,0)" stroke-width="1" opacity="1" d="M 192.5 358 L 195 359.5 L 193.5 360 L 192.5 358 Z " /><path fill="rgb(0,0,0)" stroke="rgb(0,0,0)" stroke-width="1" opacity="1" d="M 311.5 358 L 310.5 360 L 311.5 358 Z " /><path fill="rgb(0,0,0)" stroke="rgb(0,0,0)" stroke-width="1" opacity="1" d="M 75.5 359 L 75 360.5 L 74.5 362 L 74 360.5 L 75.5 359 Z " /><path fill="rgb(0,0,0)" stroke="rgb(0,0,0)" stroke-width="1" opacity="1" d="M 428.5 359 L 430 361.5 L 429 361.5 L 428.5 359 Z " /><path fill="rgb(0,0,0)" stroke="rgb(0,0,0)" stroke-width="1" opacity="1" d="M 78.5 360 L 79.5 362 L 77.5 362 L 76 361.5 L 78.5 360 Z " /><path fill="rgb(0,0,0)" stroke="rgb(0,0,0)" stroke-width="1" opacity="1" d="M 425.5 360 L 427.5 363 Q 425.8 359.9 424 361.5 L 425.5 360 Z " /><path fill="rgb(0,0,0)" stroke="rgb(0,0,0)" stroke-width="1" opacity="1" d="M 78.5 363 L 79.5 365 L 78.5 363 Z " /><path fill="rgb(0,0,0)" stroke="rgb(0,0,0)" stroke-width="1" opacity="1" d="M 425.5 363 L 424.5 365 L 425.5 363 Z " /><path fill="rgb(0,0,0)" stroke="rgb(0,0,0)" stroke-width="1" opacity="1" d="M 295.5 366 L 294.5 368 L 295.5 366 Z " /><path fill="rgb(0,0,0)" stroke="rgb(0,0,0)" stroke-width="1" opacity="1" d="M 213.5 369 L 212.5 371 L 211 370.5 L 213.5 369 Z " /><path fill="rgb(0,0,0)" stroke="rgb(0,0,0)" stroke-width="1" opacity="1" d="M 100.5 373 L 98.5 376 L 100.5 373 Z " /><path fill="rgb(0,0,0)" stroke="rgb(0,0,0)" stroke-width="1" opacity="1" d="M 402.5 373 L 406 375.5 L 403.5 374 L 401.5 375 L 402.5 373 Z " /><path fill="rgb(0,0,0)" stroke="rgb(0,0,0)" stroke-width="1" opacity="1" d="M 224.5 377 L 223.5 379 L 224.5 377 Z " /><path fill="rgb(0,0,0)" stroke="rgb(0,0,0)" stroke-width="1" opacity="1" d="M 229.5 377 L 228.5 379 L 229.5 377 Z " /><path fill="rgb(0,0,0)" stroke="rgb(0,0,0)" stroke-width="1" opacity="1" d="M 274.5 377 L 277 378.5 L 275.5 379 L 274.5 377 Z " /><path fill="rgb(0,0,0)" stroke="rgb(0,0,0)" stroke-width="1" opacity="1" d="M 279.5 377 L 280.5 379 L 279.5 377 Z " /><path fill="rgb(0,0,0)" stroke="rgb(0,0,0)" stroke-width="1" opacity="1" d="M 118.5 380 L 119.5 382 L 118.5 380 Z " /><path fill="rgb(0,0,0)" stroke="rgb(0,0,0)" stroke-width="1" opacity="1" d="M 392.5 380 L 392.5 383 L 390 381.5 L 392.5 380 Z " /><path fill="rgb(0,0,0)" stroke="rgb(0,0,0)" stroke-width="1" opacity="1" d="M 235.5 381 L 234.5 383 L 233 382.5 L 235.5 381 Z " /><path fill="rgb(0,0,0)" stroke="rgb(0,0,0)" stroke-width="1" opacity="1" d="M 387.5 381 L 388.5 383 L 387 383.5 L 387.5 385 L 385.5 384 L 384.5 387 L 384 384.5 L 385.5 383 Q 388 383.7 387.5 381 Z " /><path fill="rgb(0,0,0)" stroke="rgb(0,0,0)" stroke-width="1" opacity="1" d="M 117.5 383 L 120 384.5 L 119.5 387 L 118.5 384 L 116.5 385 L 117.5 383 Z " /><path fill="rgb(0,0,0)" stroke="rgb(0,0,0)" stroke-width="1" opacity="1" d="M 237.5 383 L 239 383.5 L 234.5 386 L 235.5 384 L 237.5 383 Z " /><path fill="rgb(0,0,0)" stroke="rgb(0,0,0)" stroke-width="1" opacity="1" d="M 122.5 389 L 126 390.5 L 124.5 391 L 122.5 389 Z " /><path fill="rgb(0,0,0)" stroke="rgb(0,0,0)" stroke-width="1" opacity="1" d="M 248.5 389 L 249.5 391 L 248.5 389 Z " /><path fill="rgb(0,0,0)" stroke="rgb(0,0,0)" stroke-width="1" opacity="1" d="M 375.5 389 L 378 389.5 L 375.5 390 L 375.5 389 Z " /><path fill="rgb(0,0,0)" stroke="rgb(0,0,0)" stroke-width="1" opacity="1" d="M 369.5 390 L 375.5 392 L 377.5 391 L 377.5 392 L 371.5 395 L 369 394 L 368 391.5 L 369.5 390 Z M 371 392 L 371 394 L 374 393 L 371 392 Z " /><path fill="rgb(0,0,0)" stroke="rgb(0,0,0)" stroke-width="1" opacity="1" d="M 131.5 391 L 134 392.5 L 132.5 392 L 131.5 391 Z " /><path fill="rgb(0,0,0)" stroke="rgb(0,0,0)" stroke-width="1" opacity="1" d="M 128.5 392 L 131 393.5 L 129.5 393 L 128.5 392 Z " /><path fill="rgb(0,0,0)" stroke="rgb(0,0,0)" stroke-width="1" opacity="1" d="M 284.5 392 L 285.5 394 L 284.5 392 Z " /><path fill="rgb(0,0,0)" stroke="rgb(0,0,0)" stroke-width="1" opacity="1" d="M 248.5 394 L 251 395.5 L 249 396.5 L 249.5 398 L 248 396.5 L 248.5 394 Z " /><path fill="rgb(0,0,0)" stroke="rgb(0,0,0)" stroke-width="1" opacity="1" d="M 369.5 395 L 367.5 398 L 366.5 396 Q 368 398.5 369.5 395 Z " /><path fill="rgb(0,0,0)" stroke="rgb(0,0,0)" stroke-width="1" opacity="1" d="M 137.5 396 L 136.5 398 L 137.5 396 Z " /><path fill="rgb(0,0,0)" stroke="rgb(0,0,0)" stroke-width="1" opacity="1" d="M 357.5 396 L 358.5 398 L 357.5 396 Z " /><path fill="rgb(0,0,0)" stroke="rgb(0,0,0)" stroke-width="1" opacity="1" d="M 139.5 397 L 138.5 399 L 139.5 397 Z " /><path fill="rgb(0,0,0)" stroke="rgb(0,0,0)" stroke-width="1" opacity="1" d="M 364.5 397 L 365.5 399 L 364.5 397 Z " /><path fill="rgb(0,0,0)" stroke="rgb(0,0,0)" stroke-width="1" opacity="1" d="M 143.5 398 L 144 399.5 L 142 400.5 L 143.5 398 Z " /><path fill="rgb(0,0,0)" stroke="rgb(0,0,0)" stroke-width="1" opacity="1" d="M 296.5 398 L 298.5 401 L 296.5 398 Z " /><path fill="rgb(0,0,0)" stroke="rgb(0,0,0)" stroke-width="1" opacity="1" d="M 356.5 399 L 357 401 L 353.5 402 L 353.5 401 L 356.5 399 Z " /><path fill="rgb(0,0,0)" stroke="rgb(0,0,0)" stroke-width="1" opacity="1" d="M 357.5 402 L 356.5 404 L 355 403.5 L 357.5 402 Z " /><path fill="rgb(0,0,0)" stroke="rgb(0,0,0)" stroke-width="1" opacity="1" d="M 310.5 404 L 309.5 406 L 310.5 404 Z " /><path fill="rgb(0,0,0)" stroke="rgb(0,0,0)" stroke-width="1" opacity="1" d="M 346.5 404 L 347.5 406 Q 344.7 406.7 346.5 404 Z " /><path fill="rgb(0,0,0)" stroke="rgb(0,0,0)" stroke-width="1" opacity="1" d="M 315.5 405 L 318 405.5 L 315.5 406 L 315.5 405 Z " /><path fill="rgb(0,0,0)" stroke="rgb(0,0,0)" stroke-width="1" opacity="1" d="M 310.5 407 L 313 408.5 L 311.5 409 L 310.5 407 Z " /><path fill="rgb(0,0,0)" stroke="rgb(0,0,0)" stroke-width="1" opacity="1" d="M 346.5 407 L 344.5 410 L 346.5 407 Z " /><path fill="rgb(0,0,0)" stroke="rgb(0,0,0)" stroke-width="1" opacity="1" d="M 169.5 412 L 174 414.5 L 172.5 414 L 169.5 413 L 168 413.5 L 169.5 412 Z " /><path fill="rgb(0,0,0)" stroke="rgb(0,0,0)" stroke-width="1" opacity="1" d="M 323.5 413 L 326 414.5 L 324.5 415 L 323.5 413 Z " /><path fill="rgb(0,0,0)" stroke="rgb(0,0,0)" stroke-width="1" opacity="1" d="M 332.5 413 L 335 414.5 L 333.5 415 L 332.5 413 Z " /><path fill="rgb(0,0,0)" stroke="rgb(0,0,0)" stroke-width="1" opacity="1" d="M 173.5 416 L 176 417.5 L 173.5 419 L 173.5 416 Z " /><path fill="rgb(0,0,0)" stroke="rgb(0,0,0)" stroke-width="1" opacity="1" d="M 291.5 416 L 291.5 418 L 293 418.5 L 291.5 419 L 289 417.5 L 291.5 416 Z " /><path fill="rgb(0,0,0)" stroke="rgb(0,0,0)" stroke-width="1" opacity="1" d="M 294.5 417 L 295.5 419 L 294.5 417 Z " /><path fill="rgb(0,0,0)" stroke="rgb(0,0,0)" stroke-width="1" opacity="1" d="M 191.5 427 L 190.5 429 L 191.5 427 Z " /><path fill="rgb(0,0,0)" stroke="rgb(0,0,0)" stroke-width="1" opacity="1" d="M 310.5 428 L 311.5 430 L 310.5 428 Z " /><path fill="rgb(0,0,0)" stroke="rgb(0,0,0)" stroke-width="1" opacity="1" d="M 195.5 429 L 198 430.5 L 195.5 432 L 195.5 429 Z " /><path fill="rgb(0,0,0)" stroke="rgb(0,0,0)" stroke-width="1" opacity="1" d="M 308.5 429 L 308.5 432 L 306 430.5 L 308.5 429 Z " /><path fill="rgb(0,0,0)" stroke="rgb(0,0,0)" stroke-width="1" opacity="1" d="M 301.5 431 L 304 431.5 L 301.5 432 L 301.5 431 Z " /><path fill="rgb(0,0,0)" stroke="rgb(0,0,0)" stroke-width="1" opacity="1" d="M 203.5 432 L 205.5 435 Q 203.3 435.8 204 433.5 L 203.5 432 Z " /><path fill="rgb(0,0,0)" stroke="rgb(0,0,0)" stroke-width="1" opacity="1" d="M 199.5 433 L 203 434 L 202.5 436 L 199.5 433 Z " /><path fill="rgb(0,0,0)" stroke="rgb(0,0,0)" stroke-width="1" opacity="1" d="M 303.5 433 L 305 433.5 L 301.5 435 L 301.5 434 L 303.5 433 Z " /><path fill="rgb(0,0,0)" stroke="rgb(0,0,0)" stroke-width="1" opacity="1" d="M 290.5 436 L 293 436.5 L 290.5 437 L 290.5 436 Z " /><path fill="rgb(0,0,0)" stroke="rgb(0,0,0)" stroke-width="1" opacity="1" d="M 289.5 438 L 290.5 440 Q 287.7 440.7 289.5 438 Z " /><path fill="rgb(0,0,0)" stroke="rgb(0,0,0)" stroke-width="1" opacity="1" d="M 279.5 445 L 281.5 445 L 283 445.5 L 279.5 448 L 279.5 445 Z " /><path fill="rgb(0,0,0)" stroke="rgb(0,0,0)" stroke-width="1" opacity="1" d="M 231.5 448 L 230.5 450 L 231.5 448 Z " /><path fill="rgb(0,0,0)" stroke="rgb(0,0,0)" stroke-width="1" opacity="1" d="M 272.5 448 L 275 449.5 L 273.5 450 L 272.5 448 Z " /><path fill="rgb(0,0,0)" stroke="rgb(0,0,0)" stroke-width="1" opacity="1" d="M 265.5 452 L 266 454.5 L 262.5 458 L 261 457.5 L 265 454.5 Q 262.8 453.3 265.5 452 Z " /><path fill="rgb(0,0,0)" stroke="rgb(0,0,0)" stroke-width="1" opacity="1" d="M 238.5 454 L 243 457 L 242.5 459 L 238.5 454 Z " /><path fill="rgb(0,0,0)" stroke="rgb(0,0,0)" stroke-width="1" opacity="1" d="M 260.5 455 L 262 455.5 L 259.5 457 L 260.5 455 Z " /><path fill="rgb(0,0,0)" stroke="rgb(0,0,0)" stroke-width="1" opacity="0" d="M 0 0 L 512 0 L 512 512 L 0 512 L 0 0 Z M 251 49 L 74 151 L 71 154 L 71 228 L 74 228 L 145 186 L 154 182 L 169 172 L 171 172 L 317 87 L 258 51 L 251 49 Z M 329 94 L 265 132 L 367 191 L 431 154 Q 433 155 432 153 L 343 100 L 332 94 L 329 94 Z M 137 205 L 71 244 L 71 360 L 72 362 L 251 465 L 254 465 L 317 428 L 279 404 L 139 324 L 137 323 L 137 205 Z M 431 286 L 267 381 Q 264 380 265 383 L 329 420 L 332 420 L 432 362 L 433 358 L 432 354 L 432 293 L 433 290 L 433 288 L 431 286 Z " /><path fill="rgb(18,20,21)" stroke="rgb(18,20,21)" stroke-width="1" opacity="0.9098039215686274" d="M 257.5 51 L 258.5 53 L 257.5 51 Z " /><path fill="rgb(18,20,21)" stroke="rgb(18,20,21)" stroke-width="1" opacity="0.9098039215686274" d="M 244.5 52 L 243.5 54 L 244.5 52 Z " /><path fill="rgb(18,20,21)" stroke="rgb(18,20,21)" stroke-width="1" opacity="0.9098039215686274" d="M 269.5 58 L 270.5 60 L 269.5 58 Z " /><path fill="rgb(18,20,21)" stroke="rgb(18,20,21)" stroke-width="1" opacity="0.9098039215686274" d="M 213.5 70 L 212.5 72 L 213.5 70 Z " /><path fill="rgb(18,20,21)" stroke="rgb(18,20,21)" stroke-width="1" opacity="0.9098039215686274" d="M 206.5 74 L 205.5 76 L 206.5 74 Z " /><path fill="rgb(18,20,21)" stroke="rgb(18,20,21)" stroke-width="1" opacity="0.9098039215686274" d="M 302.5 77 L 303.5 79 L 302.5 77 Z " /><path fill="rgb(18,20,21)" stroke="rgb(18,20,21)" stroke-width="1" opacity="0.9098039215686274" d="M 194.5 81 L 193.5 83 L 194.5 81 Z " /><path fill="rgb(18,20,21)" stroke="rgb(18,20,21)" stroke-width="1" opacity="0.9098039215686274" d="M 314.5 84 L 315.5 86 L 314.5 84 Z " /><path fill="rgb(18,20,21)" stroke="rgb(18,20,21)" stroke-width="1" opacity="0.9098039215686274" d="M 294.5 99 L 293.5 101 L 294.5 99 Z " /><path fill="rgb(18,20,21)" stroke="rgb(18,20,21)" stroke-width="1" opacity="0.9098039215686274" d="M 317.5 100 L 316.5 102 L 317.5 100 Z " /><path fill="rgb(18,20,21)" stroke="rgb(18,20,21)" stroke-width="1" opacity="0.9098039215686274" d="M 287.5 103 L 286.5 105 L 287.5 103 Z " /><path fill="rgb(18,20,21)" stroke="rgb(18,20,21)" stroke-width="1" opacity="0.9098039215686274" d="M 149.5 107 L 148.5 109 L 149.5 107 Z " /><path fill="rgb(18,20,21)" stroke="rgb(18,20,21)" stroke-width="1" opacity="0.9098039215686274" d="M 354.5 107 L 355.5 109 L 354.5 107 Z " /><path fill="rgb(18,20,21)" stroke="rgb(18,20,21)" stroke-width="1" opacity="0.9098039215686274" d="M 273.5 111 L 272.5 113 L 273.5 111 Z " /><path fill="rgb(18,20,21)" stroke="rgb(18,20,21)" stroke-width="1" opacity="0.9098039215686274" d="M 298.5 111 L 297.5 113 L 298.5 111 Z " /><path fill="rgb(18,20,21)" stroke="rgb(18,20,21)" stroke-width="1" opacity="0.9098039215686274" d="M 268.5 114 L 267.5 116 L 268.5 114 Z " /><path fill="rgb(18,20,21)" stroke="rgb(18,20,21)" stroke-width="1" opacity="0.9098039215686274" d="M 373.5 118 L 374.5 120 L 373.5 118 Z " /><path fill="rgb(18,20,21)" stroke="rgb(18,20,21)" stroke-width="1" opacity="0.9098039215686274" d="M 123.5 122 L 122.5 124 L 123.5 122 Z " /><path fill="rgb(18,20,21)" stroke="rgb(18,20,21)" stroke-width="1" opacity="0.9098039215686274" d="M 254.5 122 L 253.5 124 L 254.5 122 Z " /><path fill="rgb(18,20,21)" stroke="rgb(18,20,21)" stroke-width="1" opacity="0.9098039215686274" d="M 249.5 125 L 248.5 127 L 249.5 125 Z " /><path fill="rgb(18,20,21)" stroke="rgb(18,20,21)" stroke-width="1" opacity="0.9098039215686274" d="M 116.5 126 L 115.5 128 L 116.5 126 Z " /><path fill="rgb(18,20,21)" stroke="rgb(18,20,21)" stroke-width="1" opacity="0.9098039215686274" d="M 387.5 126 L 388.5 128 L 387.5 126 Z " /><path fill="rgb(18,20,21)" stroke="rgb(18,20,21)" stroke-width="1" opacity="0.9098039215686274" d="M 235.5 133 L 234.5 135 L 235.5 133 Z " /><path fill="rgb(18,20,21)" stroke="rgb(18,20,21)" stroke-width="1" opacity="0.9098039215686274" d="M 268.5 133 L 269.5 135 L 268.5 133 Z " /><path fill="rgb(18,20,21)" stroke="rgb(18,20,21)" stroke-width="1" opacity="0.9098039215686274" d="M 399.5 133 L 400.5 135 L 399.5 133 Z " /><path fill="rgb(18,20,21)" stroke="rgb(18,20,21)" stroke-width="1" opacity="0.9098039215686274" d="M 404.5 136 L 405.5 138 L 404.5 136 Z " /><path fill="rgb(18,20,21)" stroke="rgb(18,20,21)" stroke-width="1" opacity="0.9098039215686274" d="M 97.5 137 L 96.5 139 L 97.5 137 Z " /><path fill="rgb(18,20,21)" stroke="rgb(18,20,21)" stroke-width="1" opacity="0.9098039215686274" d="M 287.5 144 L 288.5 146 L 287.5 144 Z " /><path fill="rgb(18,20,21)" stroke="rgb(18,20,21)" stroke-width="1" opacity="0.9098039215686274" d="M 78.5 148 L 77.5 150 L 78.5 148 Z " /><path fill="rgb(18,20,21)" stroke="rgb(18,20,21)" stroke-width="1" opacity="0.9098039215686274" d="M 294.5 148 L 295.5 150 L 294.5 148 Z " /><path fill="rgb(18,20,21)" stroke="rgb(18,20,21)" stroke-width="1" opacity="0.9098039215686274" d="M 425.5 148 L 426.5 150 L 425.5 148 Z " /><path fill="rgb(18,20,21)" stroke="rgb(18,20,21)" stroke-width="1" opacity="0.9098039215686274" d="M 71.5 153 L 72 227.5 L 71 227.5 L 71.5 153 Z " /><path fill="rgb(18,20,21)" stroke="rgb(18,20,21)" stroke-width="1" opacity="0.9098039215686274" d="M 197.5 155 L 196.5 157 L 197.5 155 Z " /><path fill="rgb(18,20,21)" stroke="rgb(18,20,21)" stroke-width="1" opacity="0.9098039215686274" d="M 306.5 155 L 307.5 157 L 306.5 155 Z " /><path fill="rgb(18,20,21)" stroke="rgb(18,20,21)" stroke-width="1" opacity="0.9098039215686274" d="M 422.5 158 L 421.5 160 L 422.5 158 Z " /><path fill="rgb(18,20,21)" stroke="rgb(18,20,21)" stroke-width="1" opacity="0.9098039215686274" d="M 190.5 159 L 189.5 161 L 190.5 159 Z " /><path fill="rgb(18,20,21)" stroke="rgb(18,20,21)" stroke-width="1" opacity="0.9098039215686274" d="M 313.5 159 L 314.5 161 L 313.5 159 Z " /><path fill="rgb(18,20,21)" stroke="rgb(18,20,21)" stroke-width="1" opacity="0.9098039215686274" d="M 410.5 165 L 409.5 167 L 410.5 165 Z " /><path fill="rgb(18,20,21)" stroke="rgb(18,20,21)" stroke-width="1" opacity="0.9098039215686274" d="M 403.5 169 L 402.5 171 L 403.5 169 Z " /><path fill="rgb(18,20,21)" stroke="rgb(18,20,21)" stroke-width="1" opacity="0.9098039215686274" d="M 171.5 170 L 170.5 172 L 171.5 170 Z " /><path fill="rgb(18,20,21)" stroke="rgb(18,20,21)" stroke-width="1" opacity="0.9098039215686274" d="M 332.5 170 L 333.5 172 L 332.5 170 Z " /><path fill="rgb(18,20,21)" stroke="rgb(18,20,21)" stroke-width="1" opacity="0.9098039215686274" d="M 396.5 173 L 395.5 175 L 396.5 173 Z " /><path fill="rgb(18,20,21)" stroke="rgb(18,20,21)" stroke-width="1" opacity="0.9098039215686274" d="M 391.5 176 L 390.5 178 L 391.5 176 Z " /><path fill="rgb(18,20,21)" stroke="rgb(18,20,21)" stroke-width="1" opacity="0.9098039215686274" d="M 159.5 177 L 158.5 179 L 159.5 177 Z " /><path fill="rgb(18,20,21)" stroke="rgb(18,20,21)" stroke-width="1" opacity="0.9098039215686274" d="M 154.5 180 L 153.5 182 L 152 181.5 L 154.5 180 Z " /><path fill="rgb(18,20,21)" stroke="rgb(18,20,21)" stroke-width="1" opacity="0.9098039215686274" d="M 349.5 180 L 352 181.5 L 350.5 182 L 349.5 180 Z " /><path fill="rgb(18,20,21)" stroke="rgb(18,20,21)" stroke-width="1" opacity="0.9098039215686274" d="M 150.5 182 L 149.5 184 L 150.5 182 Z " /><path fill="rgb(18,20,21)" stroke="rgb(18,20,21)" stroke-width="1" opacity="0.9098039215686274" d="M 138.5 189 L 137.5 191 L 138.5 189 Z " /><path fill="rgb(18,20,21)" stroke="rgb(18,20,21)" stroke-width="1" opacity="0.9098039215686274" d="M 112.5 204 L 111.5 206 L 112.5 204 Z " /><path fill="rgb(18,20,21)" stroke="rgb(18,20,21)" stroke-width="1" opacity="0.9098039215686274" d="M 105.5 208 L 104.5 210 L 105.5 208 Z " /><path fill="rgb(18,20,21)" stroke="rgb(18,20,21)" stroke-width="1" opacity="0.9098039215686274" d="M 100.5 211 L 99.5 213 L 100.5 211 Z " /><path fill="rgb(18,20,21)" stroke="rgb(18,20,21)" stroke-width="1" opacity="0.9098039215686274" d="M 86.5 219 L 85.5 221 L 86.5 219 Z " /><path fill="rgb(18,20,21)" stroke="rgb(18,20,21)" stroke-width="1" opacity="0.9098039215686274" d="M 74.5 226 L 73.5 228 L 74.5 226 Z " /><path fill="rgb(18,20,21)" stroke="rgb(18,20,21)" stroke-width="1" opacity="0.9098039215686274" d="M 92.5 230 L 91.5 232 L 92.5 230 Z " /><path fill="rgb(18,20,21)" stroke="rgb(18,20,21)" stroke-width="1" opacity="0.9098039215686274" d="M 73.5 241 L 72 243.5 L 71.5 360 L 71 243.5 L 73.5 241 Z " /><path fill="rgb(18,20,21)" stroke="rgb(18,20,21)" stroke-width="1" opacity="0.9098039215686274" d="M 426.5 288 L 425.5 290 L 426.5 288 Z " /><path fill="rgb(18,20,21)" stroke="rgb(18,20,21)" stroke-width="1" opacity="0.9098039215686274" d="M 432.5 289 L 433 291.5 L 432 291.5 L 432.5 289 Z " /><path fill="rgb(18,20,21)" stroke="rgb(18,20,21)" stroke-width="1" opacity="0.9098039215686274" d="M 386.5 311 L 385.5 313 L 386.5 311 Z " /><path fill="rgb(18,20,21)" stroke="rgb(18,20,21)" stroke-width="1" opacity="0.9098039215686274" d="M 381.5 314 L 380.5 316 L 381.5 314 Z " /><path fill="rgb(18,20,21)" stroke="rgb(18,20,21)" stroke-width="1" opacity="0.9098039215686274" d="M 141.5 325 L 142.5 327 L 141.5 325 Z " /><path fill="rgb(18,20,21)" stroke="rgb(18,20,21)" stroke-width="1" opacity="0.9098039215686274" d="M 355.5 329 L 354.5 331 L 355.5 329 Z " /><path fill="rgb(18,20,21)" stroke="rgb(18,20,21)" stroke-width="1" opacity="0.9098039215686274" d="M 155.5 333 L 156.5 335 L 155.5 333 Z " /><path fill="rgb(18,20,21)" stroke="rgb(18,20,21)" stroke-width="1" opacity="0.9098039215686274" d="M 348.5 333 L 347.5 335 L 348.5 333 Z " /><path fill="rgb(18,20,21)" stroke="rgb(18,20,21)" stroke-width="1" opacity="0.9098039215686274" d="M 160.5 336 L 161.5 338 L 160.5 336 Z " /><path fill="rgb(18,20,21)" stroke="rgb(18,20,21)" stroke-width="1" opacity="0.9098039215686274" d="M 167.5 340 L 168.5 342 L 167.5 340 Z " /><path fill="rgb(18,20,21)" stroke="rgb(18,20,21)" stroke-width="1" opacity="0.9098039215686274" d="M 336.5 340 L 335.5 342 L 336.5 340 Z " /><path fill="rgb(18,20,21)" stroke="rgb(18,20,21)" stroke-width="1" opacity="0.9098039215686274" d="M 329.5 344 L 328.5 346 L 329.5 344 Z " /><path fill="rgb(18,20,21)" stroke="rgb(18,20,21)" stroke-width="1" opacity="0.9098039215686274" d="M 432.5 354 L 433 357.5 L 432 357.5 L 432.5 354 Z " /><path fill="rgb(18,20,21)" stroke="rgb(18,20,21)" stroke-width="1" opacity="0.9098039215686274" d="M 193.5 355 L 194.5 357 L 193.5 355 Z " /><path fill="rgb(18,20,21)" stroke="rgb(18,20,21)" stroke-width="1" opacity="0.9098039215686274" d="M 205.5 362 L 206.5 364 L 205.5 362 Z " /><path fill="rgb(18,20,21)" stroke="rgb(18,20,21)" stroke-width="1" opacity="0.9098039215686274" d="M 81.5 366 L 82.5 368 L 81.5 366 Z " /><path fill="rgb(18,20,21)" stroke="rgb(18,20,21)" stroke-width="1" opacity="0.9098039215686274" d="M 93.5 373 L 94.5 375 L 93.5 373 Z " /><path fill="rgb(18,20,21)" stroke="rgb(18,20,21)" stroke-width="1" opacity="0.9098039215686274" d="M 410.5 373 L 409.5 375 L 407.5 376 L 408.5 374 L 410.5 373 Z " /><path fill="rgb(18,20,21)" stroke="rgb(18,20,21)" stroke-width="1" opacity="0.9098039215686274" d="M 270.5 378 L 269.5 380 L 270.5 378 Z " /><path fill="rgb(18,20,21)" stroke="rgb(18,20,21)" stroke-width="1" opacity="0.9098039215686274" d="M 238.5 381 L 239.5 383 L 238.5 381 Z " /><path fill="rgb(18,20,21)" stroke="rgb(18,20,21)" stroke-width="1" opacity="0.9098039215686274" d="M 396.5 381 L 395.5 383 L 396.5 381 Z " /><path fill="rgb(18,20,21)" stroke="rgb(18,20,21)" stroke-width="1" opacity="0.9098039215686274" d="M 117.5 387 L 120 388.5 L 118.5 389 L 117.5 387 Z " /><path fill="rgb(18,20,21)" stroke="rgb(18,20,21)" stroke-width="1" opacity="0.9098039215686274" d="M 126.5 392 L 127.5 394 L 126.5 392 Z " /><path fill="rgb(18,20,21)" stroke="rgb(18,20,21)" stroke-width="1" opacity="0.9098039215686274" d="M 257.5 392 L 258.5 394 L 257.5 392 Z " /><path fill="rgb(18,20,21)" stroke="rgb(18,20,21)" stroke-width="1" opacity="0.9098039215686274" d="M 282.5 392 L 283.5 394 L 282.5 392 Z " /><path fill="rgb(18,20,21)" stroke="rgb(18,20,21)" stroke-width="1" opacity="0.9098039215686274" d="M 131.5 395 L 132.5 397 L 131.5 395 Z " /><path fill="rgb(18,20,21)" stroke="rgb(18,20,21)" stroke-width="1" opacity="0.9098039215686274" d="M 370.5 396 L 369.5 398 L 370.5 396 Z " /><path fill="rgb(18,20,21)" stroke="rgb(18,20,21)" stroke-width="1" opacity="0.9098039215686274" d="M 145.5 403 L 146.5 405 L 145.5 403 Z " /><path fill="rgb(18,20,21)" stroke="rgb(18,20,21)" stroke-width="1" opacity="0.9098039215686274" d="M 301.5 403 L 302.5 405 L 301.5 403 Z " /><path fill="rgb(18,20,21)" stroke="rgb(18,20,21)" stroke-width="1" opacity="0.9098039215686274" d="M 358.5 403 L 357.5 405 L 358.5 403 Z " /><path fill="rgb(18,20,21)" stroke="rgb(18,20,21)" stroke-width="1" opacity="0.9098039215686274" d="M 278.5 404 L 279.5 406 L 278.5 404 Z " /><path fill="rgb(18,20,21)" stroke="rgb(18,20,21)" stroke-width="1" opacity="0.9098039215686274" d="M 283.5 407 L 284.5 409 L 283.5 407 Z " /><path fill="rgb(18,20,21)" stroke="rgb(18,20,21)" stroke-width="1" opacity="0.9098039215686274" d="M 351.5 407 L 350.5 409 L 351.5 407 Z " /><path fill="rgb(18,20,21)" stroke="rgb(18,20,21)" stroke-width="1" opacity="0.9098039215686274" d="M 320.5 414 L 321.5 416 L 320.5 414 Z " /><path fill="rgb(18,20,21)" stroke="rgb(18,20,21)" stroke-width="1" opacity="0.9098039215686274" d="M 337.5 415 L 336.5 417 L 337.5 415 Z " /><path fill="rgb(18,20,21)" stroke="rgb(18,20,21)" stroke-width="1" opacity="0.9098039215686274" d="M 327.5 418 L 328.5 420 L 327.5 418 Z " /><path fill="rgb(18,20,21)" stroke="rgb(18,20,21)" stroke-width="1" opacity="0.9098039215686274" d="M 332.5 418 L 331.5 420 L 332.5 418 Z " /><path fill="rgb(18,20,21)" stroke="rgb(18,20,21)" stroke-width="1" opacity="0.9098039215686274" d="M 309.5 422 L 310.5 424 L 309.5 422 Z " /><path fill="rgb(18,20,21)" stroke="rgb(18,20,21)" stroke-width="1" opacity="0.9098039215686274" d="M 190.5 429 L 191.5 431 L 190.5 429 Z " /><path fill="rgb(18,20,21)" stroke="rgb(18,20,21)" stroke-width="1" opacity="0.9098039215686274" d="M 313.5 429 L 312.5 431 L 313.5 429 Z " /><path fill="rgb(18,20,21)" stroke="rgb(18,20,21)" stroke-width="1" opacity="0.9098039215686274" d="M 197.5 433 L 198.5 435 L 197.5 433 Z " /><path fill="rgb(18,20,21)" stroke="rgb(18,20,21)" stroke-width="1" opacity="0.9098039215686274" d="M 204.5 437 L 205.5 439 L 204.5 437 Z " /><path fill="rgb(18,20,21)" stroke="rgb(18,20,21)" stroke-width="1" opacity="0.9098039215686274" d="M 299.5 437 L 298.5 439 L 299.5 437 Z " /><path fill="rgb(18,20,21)" stroke="rgb(18,20,21)" stroke-width="1" opacity="0.9098039215686274" d="M 216.5 444 L 217.5 446 L 216.5 444 Z " /><path fill="rgb(18,20,21)" stroke="rgb(18,20,21)" stroke-width="1" opacity="0.9098039215686274" d="M 223.5 448 L 224.5 450 L 223.5 448 Z " /><path fill="rgb(18,20,21)" stroke="rgb(18,20,21)" stroke-width="1" opacity="0.9098039215686274" d="M 230.5 452 L 231.5 454 L 230.5 452 Z " /><path fill="rgb(18,20,21)" stroke="rgb(18,20,21)" stroke-width="1" opacity="0.9098039215686274" d="M 235.5 455 L 236.5 457 L 235.5 455 Z " /><path fill="rgb(18,20,21)" stroke="rgb(18,20,21)" stroke-width="1" opacity="0.9098039215686274" d="M 242.5 459 L 243.5 461 L 242.5 459 Z " /><path fill="rgb(18,20,21)" stroke="rgb(18,20,21)" stroke-width="1" opacity="0.9098039215686274" d="M 261.5 459 L 260.5 461 L 261.5 459 Z " /><path fill="rgb(1,1,2)" stroke="rgb(1,1,2)" stroke-width="1" opacity="1" d="M 251.5 49 L 265 56.5 L 265.5 58 L 267.5 58 L 291 71.5 L 291.5 73 L 293 72.5 L 293.5 74 Q 295 71.5 296.5 75 L 317 86.5 L 302.5 95 L 301 94.5 L 299.5 97 L 288.5 103 L 286.5 102 L 285.5 105 L 276.5 110 L 275 109.5 L 274.5 111 L 273 110.5 L 271.5 113 L 262.5 118 L 261 117.5 L 259.5 120 L 245.5 128 L 242.5 126 L 243.5 129 L 242 128.5 L 240.5 131 L 210.5 148 L 209 147.5 L 207.5 150 L 179.5 166 L 178 165.5 L 176.5 168 L 165.5 174 L 163.5 173 L 162.5 176 L 153.5 181 L 152 180.5 Q 152.8 182.8 150.5 182 Q 149 185.5 147.5 183 L 146 183.5 L 146.5 185 L 145 184.5 L 143.5 187 L 141.5 188 L 140 187.5 Q 140.8 189.8 138.5 189 L 134.5 192 L 133 191.5 L 131.5 194 L 120.5 200 L 118.5 199 L 117.5 202 L 116 201.5 Q 116.8 203.8 114.5 203 L 110.5 206 L 108.5 205 L 108.5 207 L 107 206.5 L 106.5 208 L 105 207.5 L 103.5 210 L 101.5 211 L 100 210.5 L 98.5 213 L 89.5 218 L 88 217.5 Q 88.8 219.8 86.5 219 L 82.5 222 L 81 221.5 L 79.5 224 L 77.5 225 L 76 224.5 L 75.5 226 L 74 225.5 L 72.5 228 L 72 226.5 L 72 224.5 L 72 152.5 L 73.5 152 L 76 151.5 L 76.5 150 L 78.5 151 L 79.5 148 L 93.5 140 L 95 140.5 Q 94.3 138.3 96.5 139 L 107.5 132 L 109 132.5 L 110.5 130 L 121.5 124 L 123 124.5 L 124.5 122 L 133.5 117 L 135 117.5 L 136.5 115 L 185.5 87 L 187 87.5 L 188.5 85 L 195.5 81 L 197 81.5 Q 196.3 79.3 198.5 80 L 211.5 72 L 213 72.5 L 214.5 70 L 237.5 57 L 239 57.5 L 240.5 55 L 251.5 49 Z M 312 86 L 312 87 L 314 87 L 312 86 Z M 238 127 L 238 128 L 240 128 L 238 127 Z M 227 132 L 227 133 L 229 133 L 227 132 Z M 226 134 Q 224 137 227 136 L 226 134 Z " /><path fill="rgb(1,1,2)" stroke="rgb(1,1,2)" stroke-width="1" opacity="1" d="M 329.5 94 L 364 113 L 364.5 115 L 366.5 115 L 369 116.5 L 369.5 118 L 371.5 118 L 381 123.5 L 380.5 125 L 382.5 124 L 395 131 L 395.5 133 L 397.5 133 L 405 137.5 L 405.5 139 L 407.5 139 L 426 149.5 L 426.5 151 L 428.5 151 L 432 152.5 L 429 153.5 L 427.5 156 L 425.5 157 L 424 156.5 Q 424.8 158.8 422.5 158 L 418.5 161 L 417 160.5 L 415.5 163 L 406.5 168 L 405 167.5 Q 405.8 169.8 403.5 169 L 382.5 182 L 380.5 181 L 380.5 183 L 378.5 182 L 378.5 184 L 373.5 187 L 371.5 186 L 370.5 189 L 365.5 190 L 359 185.5 L 358.5 184 L 357 184.5 L 357.5 183 L 355.5 184 L 352 181.5 L 351.5 180 L 349.5 180 L 333 170.5 L 332.5 169 L 330.5 169 L 326 166.5 L 325.5 165 L 323.5 165 L 319 162.5 L 318.5 161 L 316.5 161 L 307 155.5 Q 308.1 152.2 305.5 153 L 305.5 155 L 300 151.5 L 299.5 150 L 297.5 150 L 295 148.5 L 294.5 147 L 292.5 147 L 267 133 L 266.5 131 L 265 131.5 L 329.5 94 Z M 356 112 L 355 114 L 357 113 L 356 112 Z M 360 114 L 360 115 L 362 115 L 360 114 Z M 383 126 L 383 127 L 385 127 L 383 126 Z M 316 157 L 316 158 L 318 158 L 316 157 Z M 389 173 L 387 175 L 389 175 L 389 173 Z M 348 177 L 349 179 L 350 179 L 348 177 Z " /><path fill="rgb(1,1,2)" stroke="rgb(1,1,2)" stroke-width="1" opacity="1" d="M 135.5 206 L 137 206.5 L 137 323.5 L 138.5 324 L 161 337.5 L 161.5 339 L 163.5 339 L 175 345.5 L 175.5 347 L 177.5 347 L 201 360.5 L 201.5 362 L 203.5 362 L 227 375.5 L 227.5 377 L 229 376.5 L 229.5 378 Q 231 375.5 232.5 379 L 258 393.5 L 258.5 395 L 260.5 395 L 272 401.5 L 272.5 403 L 274.5 403 L 305 420.5 L 305.5 422 L 307.5 422 L 317 427.5 L 314.5 429 L 313 428.5 L 311.5 431 L 309.5 432 L 308 431.5 L 307.5 433 L 306 432.5 L 304.5 435 L 274.5 452 L 273 451.5 L 271.5 454 L 251 465 L 250.5 463 Q 249 465.5 247.5 462 L 243 459.5 Q 244.1 456.2 241.5 457 L 241.5 459 L 231 452.5 L 230.5 451 L 228.5 451 L 203 437 Q 204.5 433.2 201.5 434 L 201.5 436 L 198 433.5 L 197.5 432 L 196 432.5 L 195.5 431 L 193.5 431 L 191 429.5 L 190.5 428 L 188.5 428 L 156 410 L 155.5 408 L 153.5 408 L 151 406.5 L 151.5 405 L 149.5 406 L 139 399.5 L 138.5 398 L 137 398.5 L 136.5 397 L 134.5 397 L 125 391.5 L 125.5 390 L 123.5 391 L 123.5 389 L 121.5 390 L 99 376.5 L 98.5 375 L 96.5 375 L 94 373.5 L 93.5 372 L 91.5 372 L 87 369.5 L 86.5 368 L 84.5 368 L 80 366 L 79.5 364 L 77.5 364 L 73 361.5 L 72 358.5 L 72 356.5 L 72 243.5 L 74.5 241 L 83.5 236 L 85 236.5 L 86.5 234 L 107.5 222 L 109 222.5 L 109.5 221 L 111 221.5 L 112.5 219 L 126.5 211 L 128 211.5 Q 127.3 209.3 129.5 210 L 135.5 206 Z M 125 217 L 124 219 L 126 218 L 125 217 Z M 98 229 L 96 231 L 98 231 L 98 229 Z M 164 342 Q 162 345 165 344 L 164 342 Z M 166 344 L 166 345 L 168 345 L 166 344 Z M 302 431 L 302 432 L 304 432 L 302 431 Z M 205 433 Q 203 436 206 435 L 205 433 Z M 291 436 L 291 437 L 293 437 L 291 436 Z M 290 438 Q 288 441 291 440 L 290 438 Z " /><path fill="rgb(1,1,2)" stroke="rgb(1,1,2)" stroke-width="1" opacity="1" d="M 431.5 286 L 432 360.5 L 430 361.5 L 429.5 360 L 427.5 364 L 425.5 365 L 424 364.5 Q 424.8 366.8 422.5 366 L 418.5 369 L 417 368.5 L 415.5 371 L 409.5 374 L 408 373.5 L 406.5 376 L 405 375.5 Q 405.8 377.8 403.5 377 L 380.5 391 L 379 390.5 L 378.5 392 L 376.5 391 L 375.5 394 L 373.5 395 L 371.5 394 L 371.5 396 L 368.5 398 L 367 397.5 L 366.5 399 L 365 398.5 L 363.5 401 L 340.5 414 L 339 413.5 L 338.5 415 L 337 414.5 L 335.5 417 L 329.5 420 L 312 409.5 L 312.5 408 L 310.5 409 L 302 403.5 L 301.5 402 L 299.5 402 L 295 399.5 L 294.5 398 L 292.5 398 L 286 395 L 285.5 393 Q 284.3 395.3 283 392.5 L 282.5 391 L 280.5 391 L 272 387 L 271.5 385 L 269.5 385 L 265 382.5 L 273.5 377 L 275 377.5 L 276.5 375 L 299.5 362 L 301 362.5 L 301.5 361 L 303 361.5 L 304.5 359 L 327.5 346 L 329 346.5 L 330.5 344 L 379.5 316 L 381 316.5 L 382.5 314 L 403.5 302 L 405 302.5 L 405.5 301 L 407 301.5 L 408.5 299 L 431.5 286 Z M 396 309 L 396 311 L 398 310 L 396 309 Z M 337 344 L 337 345 L 339 345 L 337 344 Z M 388 381 Q 386 384 389 383 L 388 381 Z M 376 389 L 376 390 L 378 390 L 376 389 Z M 372 391 L 372 392 L 374 392 L 372 391 Z M 369 392 Q 368 395 371 394 Q 372 391 369 392 Z M 357 399 L 355 401 L 357 401 L 357 399 Z M 347 404 Q 345 407 348 406 L 347 404 Z M 316 405 L 316 406 L 318 406 L 316 405 Z " /></svg>